<?xml version="1.0" standalone="no"?>
<!DOCTYPE svg PUBLIC "-//W3C//DTD SVG 20010904//EN"
 "http://www.w3.org/TR/2001/REC-SVG-20010904/DTD/svg10.dtd">
<svg version="1.0" xmlns="http://www.w3.org/2000/svg"
 width="128.000000pt" height="128.000000pt" viewBox="0 0 128.000000 128.000000"
 preserveAspectRatio="xMidYMid meet">

<g transform="translate(0.000000,128.000000) scale(0.100000,-0.100000)"
fill="#4783FE" stroke="none">
<path d="M290 1145 l0 -84 -72 -3 -73 -3 -3 -503 -2 -502 425 0 425 0 0 85 0
84 73 3 72 3 3 503 2 502 -425 0 -425 0 0 -85z m820 -415 l0 -470 -60 0 -60 0
-2 398 -3 397 -332 3 -333 2 0 70 0 70 395 0 395 0 0 -470z m-150 -180 l0
-470 -395 0 -395 0 0 470 0 470 395 0 395 0 0 -470z"/>
<path d="M625 919 c-14 -22 21 -29 130 -27 90 3 110 6 110 18 0 12 -21 16
-117 18 -79 2 -119 -1 -123 -9z"/>
<path d="M265 739 c-4 -6 -3 -15 2 -20 5 -5 132 -8 304 -7 253 3 294 5 294 18
0 13 -41 15 -297 18 -208 2 -299 -1 -303 -9z"/>
<path d="M265 649 c-4 -6 -3 -15 2 -20 5 -5 132 -8 304 -7 253 3 294 5 294 18
0 13 -41 15 -297 18 -208 2 -299 -1 -303 -9z"/>
<path d="M265 559 c-4 -6 -3 -15 2 -20 5 -5 132 -8 304 -7 253 3 294 5 294 18
0 13 -41 15 -297 18 -208 2 -299 -1 -303 -9z"/>
<path d="M265 469 c-4 -6 -3 -15 2 -20 5 -5 132 -8 304 -7 253 3 294 5 294 18
0 13 -41 15 -297 18 -208 2 -299 -1 -303 -9z"/>
<path d="M265 379 c-4 -6 -3 -15 2 -20 5 -5 132 -8 304 -7 253 3 294 5 294 18
0 13 -41 15 -297 18 -208 2 -299 -1 -303 -9z"/>
<path d="M265 289 c-4 -6 -3 -15 2 -20 5 -5 132 -8 304 -7 253 3 294 5 294 18
0 13 -41 15 -297 18 -208 2 -299 -1 -303 -9z"/>
<path d="M372 193 c3 -16 20 -18 193 -18 173 0 190 2 193 18 3 16 -11 17 -193
17 -182 0 -196 -1 -193 -17z"/>
</g>
</svg>
