<?xml version="1.0" standalone="no"?>
<!DOCTYPE svg PUBLIC "-//W3C//DTD SVG 20010904//EN"
 "http://www.w3.org/TR/2001/REC-SVG-20010904/DTD/svg10.dtd">
<svg version="1.0" xmlns="http://www.w3.org/2000/svg"
 width="250.000000pt" height="100.000000pt" viewBox="0 0 250.000000 100.000000"
 preserveAspectRatio="xMidYMid meet">

<g transform="translate(0.000000,100.000000) scale(0.100000,-0.100000)"
fill="#4783FE" stroke="none">
<path d="M243 673 l-179 -198 176 -197 175 -197 351 -1 350 0 25 27 c48 54 53
68 8 25 l-45 -42 -339 0 -340 0 -168 187 c-92 102 -167 192 -165 199 2 7 77
96 167 198 l164 186 341 0 340 0 45 -42 44 -43 -38 48 -37 47 -349 0 -348 0
-178 -197z"/>
<path d="M535 706 c-60 -19 -96 -41 -134 -79 -77 -80 -42 -176 86 -239 62 -30
75 -33 158 -33 60 0 108 7 142 19 l53 18 161 -101 c147 -91 179 -106 179 -82
0 4 -65 50 -145 102 -80 52 -145 100 -145 107 0 7 11 28 25 46 29 38 33 92 10
136 -19 37 -94 89 -153 106 -56 17 -183 17 -237 0z m260 -43 c84 -44 113 -108
80 -177 -35 -73 -162 -115 -286 -95 -113 18 -160 58 -167 142 -4 51 -2 56 32
90 49 50 110 68 216 64 62 -3 96 -9 125 -24z"/>
<path d="M1210 605 c0 -12 19 -15 113 -15 120 0 157 -12 157 -49 0 -34 -29
-45 -126 -49 l-94 -4 0 -79 0 -79 30 0 30 0 0 65 0 65 65 0 c104 0 161 35 153
93 -2 12 -18 32 -37 44 -31 21 -45 23 -162 23 -108 0 -129 -2 -129 -15z"/>
<path d="M1643 525 c-38 -16 -53 -42 -53 -90 0 -75 44 -105 155 -105 58 0 66
2 63 18 -2 13 -15 18 -58 20 -76 3 -100 10 -100 27 0 12 17 15 85 15 96 0 105
6 89 63 -17 58 -108 84 -181 52z m116 -40 c28 -27 5 -45 -54 -45 -52 0 -55 2
-55 24 0 42 72 55 109 21z"/>
<path d="M1955 533 c-43 -11 -65 -44 -65 -95 0 -27 5 -58 10 -68 13 -24 69
-40 143 -40 50 0 57 2 57 20 0 18 -7 20 -68 20 -63 0 -92 10 -92 32 0 4 41 8
90 8 l90 0 0 38 c0 53 -32 81 -96 87 -27 2 -58 1 -69 -2z m103 -51 c20 -27 8
-37 -48 -40 -58 -3 -74 5 -64 32 14 37 86 43 112 8z"/>
<path d="M2307 534 c-4 -4 -39 -6 -78 -5 -54 1 -70 -1 -67 -11 3 -7 14 -14 26
-16 20 -3 22 -9 22 -68 l0 -64 -30 0 c-23 0 -30 -4 -30 -20 0 -19 7 -20 91
-20 81 0 90 2 87 18 -2 10 -14 18 -31 20 -26 3 -27 6 -27 62 0 64 6 70 66 70
27 0 34 4 34 20 0 15 -7 20 -28 20 -16 0 -32 -3 -35 -6z"/>
</g>
</svg>
