<?xml version="1.0" standalone="no"?>
<!DOCTYPE svg PUBLIC "-//W3C//DTD SVG 20010904//EN"
 "http://www.w3.org/TR/2001/REC-SVG-20010904/DTD/svg10.dtd">
<svg version="1.0" xmlns="http://www.w3.org/2000/svg"
 width="128.000000pt" height="128.000000pt" viewBox="0 0 128.000000 128.000000"
 preserveAspectRatio="xMidYMid meet">

<g transform="translate(0.000000,128.000000) scale(0.100000,-0.100000)"
fill="#4783FE" stroke="none">
<path d="M295 1247 c-61 -25 -144 -79 -161 -104 -23 -35 -21 -90 4 -139 l20
-40 -30 -17 c-24 -14 -29 -22 -26 -49 2 -26 10 -36 35 -48 20 -10 33 -24 37
-42 3 -15 24 -46 46 -68 64 -64 58 -80 -52 -125 -55 -22 -104 -49 -121 -66
l-28 -30 3 -157 3 -157 77 -3 77 -3 3 -87 3 -87 455 0 455 0 3 87 3 87 77 3
77 3 3 157 3 157 -28 30 c-17 17 -66 44 -120 66 -111 45 -117 61 -53 125 22
22 43 53 46 68 4 18 17 32 37 42 25 12 33 22 35 47 3 27 -2 36 -26 50 -27 17
-28 20 -16 48 38 88 4 176 -87 224 -104 56 -163 52 -279 -17 -67 -39 -90 -72
-90 -125 0 -34 -1 -35 -44 -38 l-44 -4 -4 51 c-6 65 -29 95 -101 134 -65 36
-145 47 -192 27z m160 -56 c72 -34 95 -64 95 -126 0 -44 -2 -47 -47 -73 -103
-60 -126 -108 -93 -195 24 -62 23 -57 5 -57 -22 0 -55 -37 -55 -60 0 -27 35
-60 64 -60 18 0 25 -7 29 -30 4 -16 25 -48 47 -70 23 -23 40 -49 40 -63 0 -21
-12 -26 -147 -62 -124 -33 -153 -45 -180 -71 -21 -20 -33 -42 -33 -58 0 -25
-2 -26 -60 -26 l-60 0 0 135 c0 160 -8 148 136 209 l99 41 3 49 c3 45 1 50
-37 82 -24 21 -45 51 -53 76 -11 31 -21 44 -39 48 -31 8 -31 32 1 40 33 8 36
30 10 81 -25 47 -28 102 -9 125 12 14 27 24 122 76 46 25 93 22 162 -11z m560
0 c34 -15 69 -40 78 -54 21 -33 22 -98 1 -138 -21 -41 -15 -72 16 -79 32 -8
32 -32 1 -40 -18 -4 -28 -17 -39 -48 -8 -25 -29 -55 -53 -76 -38 -32 -40 -37
-37 -82 l3 -49 99 -41 c144 -61 136 -49 136 -209 l0 -135 -60 0 c-58 0 -60 1
-60 26 0 16 -12 38 -32 58 -28 26 -57 38 -180 71 -136 36 -148 41 -148 62 0
14 17 40 40 63 22 22 43 54 47 70 4 23 11 30 29 30 29 0 64 33 64 60 0 26 -34
60 -59 60 -19 0 -19 2 -5 35 36 86 5 175 -77 220 -27 14 -51 31 -55 36 -11 18
-6 79 7 95 12 14 27 24 122 76 46 25 93 22 162 -11z m-280 -220 c34 -15 69
-40 78 -54 19 -29 23 -112 7 -122 -5 -3 -10 -2 -10 2 0 5 -6 18 -14 28 -13 19
-15 18 -57 -10 -36 -24 -55 -30 -99 -30 -44 0 -63 6 -99 30 -42 28 -44 29 -57
10 -8 -10 -14 -22 -14 -27 0 -17 -19 -7 -26 14 -14 44 -6 82 21 106 34 29 76
28 112 -2 19 -16 34 -22 43 -16 19 12 6 37 -32 60 l-32 19 25 10 c43 17 93 12
154 -18z m-184 -208 c46 -24 133 -23 183 1 38 19 39 19 53 0 22 -29 14 -155
-13 -190 -39 -52 -71 -69 -133 -69 -102 0 -161 66 -161 180 0 55 12 95 29 95
4 0 23 -8 42 -17z m-111 -83 c0 -21 -24 -28 -35 -10 -8 14 3 30 21 30 8 0 14
-9 14 -20z m435 0 c0 -8 -8 -16 -17 -18 -13 -2 -18 3 -18 18 0 15 5 20 18 18
9 -2 17 -10 17 -18z m-175 -236 c0 -11 -13 -33 -30 -49 l-30 -29 -30 29 c-16
16 -30 38 -30 49 0 19 6 21 60 21 54 0 60 -2 60 -21z m-103 -86 l43 -42 43 41
42 42 155 -44 c97 -27 159 -50 167 -61 9 -12 13 -53 13 -126 l0 -108 -60 0
-60 0 0 80 c0 73 -2 80 -20 80 -18 0 -20 -7 -20 -80 l0 -80 -260 0 -260 0 0
80 c0 73 -2 80 -20 80 -18 0 -20 -7 -20 -80 l0 -80 -60 0 -60 0 0 108 c0 73 4
114 13 126 10 14 213 81 317 105 2 1 24 -18 47 -41z"/>
</g>
</svg>
