<?xml version="1.0" standalone="no"?>
<!DOCTYPE svg PUBLIC "-//W3C//DTD SVG 20010904//EN"
 "http://www.w3.org/TR/2001/REC-SVG-20010904/DTD/svg10.dtd">
<svg version="1.0" xmlns="http://www.w3.org/2000/svg"
 width="128.000000pt" height="128.000000pt" viewBox="0 0 128.000000 128.000000"
 preserveAspectRatio="xMidYMid meet">

<g transform="translate(0.000000,128.000000) scale(0.100000,-0.100000)"
fill="#4783FE" stroke="none">
<path d="M320 1266 c-214 -58 -349 -263 -312 -476 51 -295 386 -450 636 -293
l38 25 28 -27 c20 -19 26 -33 22 -52 -4 -22 22 -51 204 -234 125 -126 216
-209 228 -209 25 0 116 91 116 116 0 12 -83 103 -209 228 -183 182 -212 208
-234 204 -19 -4 -33 2 -51 21 l-25 26 35 70 c83 168 59 347 -66 479 -106 112
-269 161 -410 122z m232 -114 c173 -76 243 -285 151 -453 -124 -229 -466 -211
-576 29 -33 71 -31 189 4 262 59 124 175 194 309 186 37 -2 85 -12 112 -24z"/>
</g>
</svg>
